<svg width="170" height="72" viewBox="0 0 170 72" fill="none" xmlns="http://www.w3.org/2000/svg">
<path d="M7.86176 16L39.3087 8.5V56.5L7.86176 64V16Z" fill="#DE9902"/>
<path d="M7.86176 16L39.3087 8.5V56.5L7.86176 64V16Z" fill="#DE9902"/>
<path d="M7.86176 16H55.0321V64H7.86176V16Z" fill="#FBAC00"/>
<path d="M7.86176 16H55.0321V64H7.86176V16Z" fill="#FBAC00"/>
<path fill-rule="evenodd" clip-rule="evenodd" d="M32.3017 32.6001C30.0307 32.6001 28.0971 34.0811 27.3874 36.1488L27.0341 37.1783L26.0567 36.7311C25.438 36.4481 24.7511 36.2901 24.0254 36.2901C21.2859 36.2901 19.0651 38.5499 19.0651 41.3376V41.9526C19.0651 44.7403 21.2859 47.0001 24.0254 47.0001H39.739C41.9222 47.0001 43.692 45.1992 43.692 42.9776C43.692 40.756 41.9222 38.9551 39.739 38.9551H37.5055V37.8954C37.5055 34.9709 35.1757 32.6001 32.3017 32.6001ZM25.925 34.5588C27.1148 32.2087 29.5227 30.6001 32.3017 30.6001C35.9481 30.6001 38.9586 33.3702 39.4119 36.9551H39.739C43.0076 36.9551 45.6574 39.6515 45.6574 42.9776C45.6574 46.3037 43.0076 49.0001 39.739 49.0001H24.0254C20.2004 49.0001 17.0997 45.8448 17.0997 41.9526V41.3376C17.0997 37.4454 20.2004 34.2901 24.0254 34.2901C24.6832 34.2901 25.3206 34.3837 25.925 34.5588Z" fill="white"/>
<path d="M69.2934 59.3976H71.5234V51.0166C71.5234 48.3177 73.3191 46.3858 75.6939 46.3858C78.0688 46.3858 79.5459 48.0051 79.5459 50.7609V59.3976H81.747V50.9314C81.747 48.0336 83.6295 46.3858 85.8885 46.3858C88.3213 46.3858 89.7694 47.9767 89.7694 50.8177V59.3976H91.9995V50.3064C91.9995 46.6699 89.8853 44.3971 86.4388 44.3971C83.8322 44.3971 82.2393 45.7039 81.1677 47.3233C80.3568 45.6755 78.7929 44.3971 76.3601 44.3971C73.8404 44.3971 72.5081 45.7323 71.5234 47.1813V44.7096H69.2934V59.3976Z" fill="#333333"/>
<path d="M96.899 41.4992H99.4477V39.0844H96.899V41.4992ZM97.0438 59.3976H99.2739V44.7096H97.0438V59.3976Z" fill="#333333"/>
<path d="M104.449 59.3976H106.679V50.9882C106.679 48.2324 108.591 46.3858 111.168 46.3858C113.804 46.3858 115.31 48.0904 115.31 50.8177V59.3976H117.54V50.2779C117.54 46.7835 115.426 44.3971 111.806 44.3971C109.228 44.3971 107.664 45.6755 106.679 47.2665V44.7096H104.449V59.3976Z" fill="#333333"/>
<path d="M122.354 41.4992H124.902V39.0844H122.354V41.4992ZM122.499 59.3976H124.729V44.7096H122.499V59.3976Z" fill="#333333"/>
<path d="M129.904 59.3976H132.134V50.9882C132.134 48.2324 134.046 46.3858 136.623 46.3858C139.259 46.3858 140.765 48.0904 140.765 50.8177V59.3976H142.995V50.2779C142.995 46.7835 140.881 44.3971 137.26 44.3971C134.683 44.3971 133.119 45.6755 132.134 47.2665V44.7096H129.904V59.3976Z" fill="#333333"/>
<path d="M154.383 64C156.758 64 158.756 63.3466 160.089 62.0397C161.305 60.8465 162 59.1135 162 56.8407V44.7096H159.77V47.3517C158.554 45.7607 156.729 44.3971 153.92 44.3971C150.357 44.3971 146.882 47.0392 146.882 51.3291C146.882 55.619 150.328 58.2612 153.92 58.2612C156.671 58.2612 158.496 56.8691 159.799 55.1645V56.8975C159.799 60.3351 157.656 62.1249 154.354 62.1249C152.211 62.1249 150.299 61.4715 148.591 60.2499L147.577 61.9545C149.575 63.3182 151.892 64 154.383 64ZM154.354 56.3293C151.574 56.3293 149.17 54.2838 149.17 51.3291C149.17 48.2608 151.516 46.329 154.354 46.329C157.192 46.329 159.857 48.2892 159.857 51.3007C159.857 54.3122 157.192 56.3293 154.354 56.3293Z" fill="#333333"/>
<path d="M75.8004 31.5121C80.3409 31.5121 83.6881 27.95 83.6881 23.756C83.6881 19.5046 80.37 16 75.8586 16C71.3181 16 68 19.562 68 23.756C68 28.0075 71.289 31.5121 75.8004 31.5121ZM75.8586 29.53C72.686 29.53 70.2994 26.9446 70.2994 23.756C70.2994 20.5674 72.5405 17.9534 75.8004 17.9534C78.9729 17.9534 81.3887 20.5674 81.3887 23.756C81.3887 26.9446 79.1184 29.53 75.8586 29.53Z" fill="#333333"/>
<path d="M87.7479 35.7635H89.989V28.3235C91.1533 29.9896 92.9578 31.4833 95.752 31.4833C99.3902 31.4833 102.941 28.6107 102.941 23.756C102.941 18.8152 99.3611 16 95.752 16C92.9869 16 91.2115 17.5225 89.989 19.3035V16.316H87.7479V35.7635ZM95.3445 29.5012C92.5503 29.5012 89.9017 27.2032 89.9017 23.756C89.9017 20.3089 92.5503 17.9821 95.3445 17.9821C98.1969 17.9821 100.642 20.2227 100.642 23.7273C100.642 27.3755 98.2551 29.5012 95.3445 29.5012Z" fill="#333333"/>
<path d="M108.415 24.6465H120.348C120.377 24.3018 120.377 24.072 120.377 23.8709C120.377 19.5046 117.816 16 113.363 16C109.201 16 106.145 19.4471 106.145 23.756C106.145 28.3809 109.521 31.5121 113.654 31.5121C116.506 31.5121 118.34 30.3917 119.853 28.7256L118.456 27.4904C117.234 28.7544 115.779 29.5874 113.712 29.5874C111.063 29.5874 108.735 27.7777 108.415 24.6465ZM108.415 22.8655C108.735 19.9929 110.714 17.8672 113.305 17.8672C116.273 17.8672 117.845 20.1653 118.107 22.8655H108.415Z" fill="#333333"/>
<path d="M124.301 31.1673H126.542V22.6644C126.542 19.878 128.463 18.0108 131.053 18.0108C133.702 18.0108 135.215 19.7344 135.215 22.4921V31.1673H137.457V21.9463C137.457 18.413 135.332 16 131.694 16C129.103 16 127.532 17.2927 126.542 18.9013V16.316H124.301V31.1673Z" fill="#333333"/>
</svg>
