<svg width="690" height="1874" viewBox="0 0 696 1879" fill="none" xmlns="http://www.w3.org/2000/svg">
<g clip-path="url(#clip0_99_475)">
<path opacity="0.6" fill-rule="evenodd" clip-rule="evenodd" d="M1545.22 1793.11C1545.22 1793.11 1600.32 1853.06 911.023 1798.09C580.92 1771.77 205.535 1516.08 248.733 1238.73C276.391 1061.16 536.598 836.999 708.688 636.253C829.067 495.83 877.324 340.106 896.171 333.701C1016.48 292.816 1232.45 384.808 1316.83 413.008C1448.77 457.106 1595.69 827.409 1595.69 827.409L1545.22 1793.11Z" fill="#1BAAD1"/>
<path fill-rule="evenodd" clip-rule="evenodd" d="M1356.46 1548.62C1356.46 1548.62 1411.56 1608.57 722.267 1553.6C392.163 1527.28 16.779 1271.59 59.977 994.24C87.6345 816.669 347.841 592.508 519.932 391.763C640.31 251.339 688.568 95.6153 707.415 89.2106C827.727 48.3253 1043.7 140.318 1128.07 168.517C1260.01 212.616 1406.93 582.919 1406.93 582.919L1356.46 1548.62Z" fill="#F8DB73"/>
</g>
<defs>
<clipPath id="clip0_99_475">
<rect width="696" height="1879" fill="white"/>
</clipPath>
</defs>
</svg>
